<?xml version="1.0" encoding="utf-8"?>
<!-- Svg Vector Icons : http://www.sfont.cn -->
<!DOCTYPE svg PUBLIC "-//W3C//DTD SVG 1.1//EN" "http://www.w3.org/Graphics/SVG/1.1/DTD/svg11.dtd">
<svg version="1.1" xmlns="http://www.w3.org/2000/svg" xmlns:xlink="http://www.w3.org/1999/xlink" x="0px" y="0px" viewBox="0 0 1000 1000" enable-background="new 0 0 1000 1000" xml:space="preserve">
<metadata> Svg Vector Icons : http://www.sfont.cn </metadata>
<g><path d="M903.4,662.3C883.1,544.6,798,467.4,798,467.4c12.2-106.9-32.4-125.9-32.4-125.9C756.2,10.6,471.9,16.4,465.9,16.6c-6-0.2-290.3-5.9-299.7,324.9c0,0-44.6,19-32.4,125.9c0,0-85.1,77.2-105.3,194.9c0,0-10.8,199,97.2,24.4c0,0,24.3,66.3,68.9,125.9c0,0-79.7,27.1-72.9,97.5c0,0-2.7,78.5,170.2,73.1c0,0,121.5-9.5,158-60.9h15.9h0.3H482c36.5,51.5,158,60.9,158,60.9c172.8,5.4,170.2-73.1,170.2-73.1c6.7-70.4-72.9-97.5-72.9-97.5c44.6-59.6,68.9-125.9,68.9-125.9C914.1,861.3,903.4,662.3,903.4,662.3z"/><path d="M10.1,922.2c0,0,0.6,19.8,23.4,21c0,0,19.1,1.3,25.3-21c0,0,1.9-150.3,24.6-215.1c0,0,41.3-121.4,135-228c0,0,40.1,24.6,72.7,22.2c0,0,92.5,1.2,101.7-99.2c0,0,3-93.1-103.5-102.3c0,0-127.6,10.5-96.8,140.6c0,0-112.8,119.5-130.7,184.9C61.8,625,7.7,737.2,10.1,922.2z M219.6,608.4c0,0-46.9,3.1-18.2,38.8c0,0,85.4,38.3,206.2-9.2c0,0,150.4-81.9,147.3-235.4c0,0,11.7-242.3-268.1-265.6c0,0-248.4-6.8-269.9,268.8c0,0,3.7,66.5,22.2,98.6c0,0,45.6,40.1,37.6-28.4c0,0-58.5-210.8,124.8-273.6c0,0,183.5-63.5,266,81.4c0,0,78.3,119.5,0,239.2C467.4,522.7,416.3,645.4,219.6,608.4z M958.4,743.9c0,0,24.9,8.8,29.6,0c0,0,10.1-17.1-14.8-24.9c0,0-71.7-22.2-122.5-78.1c0,0-51.4-48.5-72.6-104c0,0,34.6-14.8,29.6-43.4c0,0,1.4-50.9-54.5-46.3c0,0-46.7-1.4-48.1,48.9c0,0-0.4,46.7,43.5,50.9c0,0,54.6,91.5,74.4,106.8C822.9,653.7,888.5,716.1,958.4,743.9z M741.1,616.7c0,0,23.1,1,22.2,17.6c0,0,2.8,16.6-33.3,12c0,0-116.5-12-130.5-146.1c0,0,6.5-138.7,158.1-149.8c0,0,132.2-5.6,153.4,148.4c0,0,3.2,59.6-43.9,103.1c0,0-34.2,10.1-17.1-22.2c0,0,50-49,24.5-110.5c0,0-29.8-91.4-119.2-88.3c0,0-108.2-7-124.9,122C633,531.3,655,612.6,741.1,616.7z"/></g>
</svg>